<svg width="64" height="64" viewBox="0 0 64 64" fill="none" xmlns="http://www.w3.org/2000/svg">
<g filter="url(#filter0_d_4777_47)">
<rect x="9" y="8" width="46" height="46" rx="23" fill="white" shape-rendering="crispEdges"/>
<path d="M37.2239 35.06V38H26.5239L29.9039 34.46C31.1039 33.2 32.0039 32.1 32.6439 31.08C33.0039 30.52 33.3639 29.86 33.3639 29C33.3639 28.86 33.3639 28.16 32.9639 27.72C32.7639 27.5 32.4239 27.32 31.9839 27.32C31.4239 27.32 31.0439 27.58 30.8239 27.86C30.5039 28.28 30.3639 29.04 30.3439 29.5H26.7639C26.7839 27.76 27.5439 26.5 28.2439 25.8C29.1439 24.9 30.3639 24.36 32.0239 24.36C34.0239 24.36 35.1839 25.14 35.7839 25.74C36.3239 26.28 37.0839 27.3 37.0839 29.02C37.0839 30.7 36.3039 31.86 35.1039 32.98L32.8639 35.06H37.2239Z" fill="black"/>
</g>
<defs>
<filter id="filter0_d_4777_47" x="0" y="0" width="64" height="64" filterUnits="userSpaceOnUse" color-interpolation-filters="sRGB">
<feFlood flood-opacity="0" result="BackgroundImageFix"/>
<feColorMatrix in="SourceAlpha" type="matrix" values="0 0 0 0 0 0 0 0 0 0 0 0 0 0 0 0 0 0 127 0" result="hardAlpha"/>
<feOffset dy="1"/>
<feGaussianBlur stdDeviation="4.5"/>
<feComposite in2="hardAlpha" operator="out"/>
<feColorMatrix type="matrix" values="0 0 0 0 0 0 0 0 0 0 0 0 0 0 0 0 0 0 0.25 0"/>
<feBlend mode="normal" in2="BackgroundImageFix" result="effect1_dropShadow_4777_47"/>
<feBlend mode="normal" in="SourceGraphic" in2="effect1_dropShadow_4777_47" result="shape"/>
</filter>
</defs>
</svg>
