<svg width="100%" height="100%" viewBox="0 0 115 293" fill="none" xmlns="http://www.w3.org/2000/svg">
<path d="M3.8717 11.4938C-1.55879 17.5109 -1.06702 26.7783 4.97035 32.1932C11.0112 37.6047 20.3097 37.1141 25.7402 31.097C31.1741 25.08 30.6789 15.8091 24.645 10.3976C18.6041 4.98263 9.30219 5.47332 3.8717 11.4938ZM14.1886 52.8474C18.4158 52.2245 22.4442 50.6445 25.8204 48.0275L37.0197 39.3343C42.7955 34.852 46.7681 28.3687 47.8179 21.144C48.0655 19.4249 48.5085 17.7092 49.1572 16.0214C54.0157 3.3644 68.5144 -2.78835 81.1193 2.69275C92.3709 7.58572 98.1049 20.3958 94.2509 32.0123C89.0645 47.6621 75.075 48.3268 66.6554 47.0879C61.9295 46.3954 57.1303 47.69 53.36 50.6167L43.9046 57.9527C38.0137 62.522 38.1776 71.4484 44.2255 75.8054L51.2429 80.8585C59.502 86.8024 69.8154 88.967 79.8602 87.2618C84.9698 86.3952 90.3724 86.8407 95.5658 88.8208C111.25 94.8031 118.986 112.496 112.576 128.072C106.629 142.525 89.211 150.153 74.503 144.756C63.8443 140.844 56.778 131.559 55.2085 121.14C53.6983 111.138 48.362 102.108 40.1343 96.1847L26.8144 86.5936C23.2882 84.0531 19.1726 82.4175 14.8478 81.9825C13.5747 81.8572 12.3052 81.5614 11.0566 81.0847C5.55281 78.9862 2.04409 73.9505 1.63254 68.459L1.60463 66.8164C1.66393 65.2539 1.97085 63.6704 2.56378 62.1288C4.53438 56.9922 9.08944 53.5956 14.1886 52.8474Z" fill="url(#paint0_linear_4777_16)"/>
<path d="M84.6036 263.587C79.1731 269.605 79.6649 278.872 85.7057 284.287C91.7396 289.698 101.042 289.208 106.472 283.191C111.906 277.17 111.414 267.906 105.373 262.491C99.336 257.076 90.0376 257.567 84.6036 263.587ZM97.3759 243.633C93.1208 244.036 89.0156 245.415 85.5104 247.854L73.8786 255.966C67.8796 260.149 63.5792 266.42 62.1631 273.582C61.8248 275.284 61.2947 276.979 60.5588 278.628C55.0585 291.021 40.2633 296.425 27.9584 290.311C16.9718 284.851 11.904 271.766 16.344 260.358C22.3256 244.997 36.3325 245.042 44.6788 246.709C49.3629 247.645 54.2249 246.598 58.1382 243.866L67.9598 237.021C74.0739 232.758 74.3739 223.835 68.5563 219.175L61.8074 213.774C53.8657 207.412 43.6709 204.729 33.5563 205.919C28.4048 206.521 23.0371 205.801 17.9519 203.56C2.59164 196.784 -4.22699 178.723 2.9753 163.494C9.65791 149.361 27.4422 142.631 41.8537 148.77C52.3031 153.221 58.8776 162.854 59.917 173.342C60.9075 183.407 65.773 192.699 73.6868 199.032L86.4975 209.292C89.8841 212.006 93.9125 213.847 98.213 214.501C99.472 214.696 100.728 215.055 101.948 215.594C107.337 217.971 110.588 223.177 110.713 228.682L110.661 230.325C110.518 231.884 110.131 233.45 109.458 234.957C107.225 239.989 102.503 243.146 97.3759 243.633Z" fill="url(#paint1_linear_4777_16)"/>
<defs>
<linearGradient id="paint0_linear_4777_16" x1="15.4764" y1="0.683106" x2="68.1115" y2="283.375" gradientUnits="userSpaceOnUse">
<stop stop-color="white" stop-opacity="0.652873"/>
<stop offset="0.403152" stop-color="#C7C7C7" stop-opacity="0.779455"/>
<stop offset="0.541007" stop-color="#EBEBEB" stop-opacity="0.692871"/>
<stop offset="0.819808" stop-color="#A4A4A4" stop-opacity="0.645026"/>
</linearGradient>
<linearGradient id="paint1_linear_4777_16" x1="15.4764" y1="0.683106" x2="68.1115" y2="283.375" gradientUnits="userSpaceOnUse">
<stop stop-color="#30AB4C"/>
<stop offset="0.403152" stop-color="#C7C7C7" stop-opacity="0.779455"/>
<stop offset="0.541007" stop-color="#EBEBEB" stop-opacity="0.692871"/>
<stop offset="0.819808" stop-color="#A4A4A4" stop-opacity="0.645026"/>
</linearGradient>
</defs>
</svg>
